HIERARCHY
ROOT Hips
{
	OFFSET 0.00000 0.00000 0.00000
	CHANNELS 6 Xposition Yposition Zposition Zrotation Yrotation Xrotation 
	JOINT LHipJoint
	{
		OFFSET 0 0 0
		CHANNELS 3 Zrotation Yrotation Xrotation
		JOINT LeftUpLeg
		{
			OFFSET 1.53139 -1.83434 0.76626
			CHANNELS 3 Zrotation Yrotation Xrotation
			JOINT LeftLeg
			{
				OFFSET 2.56112 -7.03663 0.00000
				CHANNELS 3 Zrotation Yrotation Xrotation
				JOINT LeftFoot
				{
					OFFSET 2.59983 -7.14299 0.00000
					CHANNELS 3 Zrotation Yrotation Xrotation
					JOINT LeftToeBase
					{
						OFFSET 0.13742 -0.37757 2.00054
						CHANNELS 3 Zrotation Yrotation Xrotation
						End Site
						{
							OFFSET 0.00000 -0.00000 1.02897
						}
					}
				}
			}
		}
	}
	JOINT RHipJoint
	{
		OFFSET 0 0 0
		CHANNELS 3 Zrotation Yrotation Xrotation
		JOINT RightUpLeg
		{
			OFFSET -1.40122 -1.83435 0.76627
			CHANNELS 3 Zrotation Yrotation Xrotation
			JOINT RightLeg
			{
				OFFSET -2.54052 -6.98003 0.00000
				CHANNELS 3 Zrotation Yrotation Xrotation
				JOINT RightFoot
				{
					OFFSET -2.63179 -7.23079 0.00000
					CHANNELS 3 Zrotation Yrotation Xrotation
					JOINT RightToeBase
					{
						OFFSET -0.24131 -0.66299 2.03908
						CHANNELS 3 Zrotation Yrotation Xrotation
						End Site
						{
							OFFSET -0.00000 -0.00000 1.07391
						}
					}
				}
			}
		}
	}
	JOINT LowerBack
	{
		OFFSET 0 0 0
		CHANNELS 3 Zrotation Yrotation Xrotation
		JOINT Spine
		{
			OFFSET 0.01174 2.10302 -0.29778
			CHANNELS 3 Zrotation Yrotation Xrotation
			JOINT Spine1
			{
				OFFSET 0.00772 2.13227 -0.01247
				CHANNELS 3 Zrotation Yrotation Xrotation
				JOINT Neck
				{
					OFFSET 0 0 0
					CHANNELS 3 Zrotation Yrotation Xrotation
					JOINT Neck1
					{
						OFFSET -0.09219 1.60848 0.31481
						CHANNELS 3 Zrotation Yrotation Xrotation
						JOINT Head
						{
							OFFSET 0.13974 1.65456 -0.31134
							CHANNELS 3 Zrotation Yrotation Xrotation
							End Site
							{
								OFFSET 0.04742 1.69515 -0.14578
							}
						}
					}
				}
				JOINT LeftShoulder
				{
					OFFSET 0 0 0
					CHANNELS 3 Zrotation Yrotation Xrotation
					JOINT LeftArm
					{
						OFFSET 3.24909 1.02882 -0.23993
						CHANNELS 3 Zrotation Yrotation Xrotation
						JOINT LeftForeArm
						{
							OFFSET 5.32955 -0.00000 -0.00000
							CHANNELS 3 Zrotation Yrotation Xrotation
							JOINT LeftHand
							{
								OFFSET 3.69232 -0.00000 -0.00000
								CHANNELS 3 Zrotation Yrotation Xrotation
								JOINT LeftFingerBase
								{
									OFFSET 0 0 0
									CHANNELS 3 Zrotation Yrotation Xrotation
									JOINT LeftHandIndex1
									{
										OFFSET 0.53660 -0.00000 -0.00000
										CHANNELS 3 Zrotation Yrotation Xrotation
										End Site
										{
											OFFSET 0.43262 -0.00000 -0.00000
										}
									}
								}
								JOINT LThumb
								{
									OFFSET 0 0 0
									CHANNELS 3 Zrotation Yrotation Xrotation
									End Site
									{
										OFFSET 0.43922 -0.00000 0.43922
									}
								}
							}
						}
					}
				}
				JOINT RightShoulder
				{
					OFFSET 0 0 0
					CHANNELS 3 Zrotation Yrotation Xrotation
					JOINT RightArm
					{
						OFFSET -3.21387 0.93002 -0.34594
						CHANNELS 3 Zrotation Yrotation Xrotation
						JOINT RightForeArm
						{
							OFFSET -5.23431 -0.00000 0.00000
							CHANNELS 3 Zrotation Yrotation Xrotation
							JOINT RightHand
							{
								OFFSET -3.55301 -0.00000 -0.00000
								CHANNELS 3 Zrotation Yrotation Xrotation
								JOINT RightFingerBase
								{
									OFFSET 0 0 0
									CHANNELS 3 Zrotation Yrotation Xrotation
									JOINT RightHandIndex1
									{
										OFFSET -0.77252 -0.00000 -0.00000
										CHANNELS 3 Zrotation Yrotation Xrotation
										End Site
										{
											OFFSET -0.62283 -0.00000 -0.00000
										}
									}
								}
								JOINT RThumb
								{
									OFFSET 0 0 0
									CHANNELS 3 Zrotation Yrotation Xrotation
									End Site
									{
										OFFSET -0.63234 -0.00000 0.63234
									}
								}
							}
						}
					}
				}
			}
		}
	}
}
MOTION
Frames: 6
Frame Time: .0083333
6.1454 17.7725 8.5192 175.3520 -16.3657 -178.9290 0.0000 0.0000 0.0000 -19.0139 -5.2068 -0.6624 0.9096 6.0775 17.0094 0.2076 -10.7731 -10.4269 0.7443 -5.5110 -15.3720 0.0000 0.0000 0.0000 2.1369 11.2451 -7.9670 -3.6316 -11.6533 34.5164 -0.5854 -3.8604 -16.3749 -0.0172 -0.8472 2.3283 -2.7126 0.8635 12.3849 0.8478 0.6784 1.6336 2.3148 0.3310 -5.2741 -12.2680 -0.6931 -15.1839 6.7949 -3.4477 38.1296 4.2467 -3.4680 16.5778 0.0000 0.0000 0.0000 -88.4407 1.0183 25.9944 19.1400 -29.5923 -5.0998 -0.0000 -0.0000 4.8132 24.0018 22.4497 9.6500 -7.1250 0.0000 -0.0000 -5.2408 54.2408 -1.1927 0.0000 0.0000 0.0000 85.9225 -2.7437 -2.0285 -18.0573 28.2305 -4.5763 0.0000 0.0000 6.4703 -15.9040 7.6953 -2.1850 7.1250 -0.0000 -0.0000 7.9398 -22.0087 4.4274
6.0749 17.7846 8.5578 175.3360 -15.9738 -178.9820 0.0000 0.0000 0.0000 -19.3302 -5.0313 -0.7139 0.9168 6.1009 17.0774 0.2106 -10.6238 -10.3913 0.6748 -5.2528 -14.6309 0.0000 0.0000 0.0000 2.5644 10.6102 -8.6599 -3.7964 -11.8844 35.3242 -0.7665 -2.1101 -17.4317 -0.0319 -1.1525 3.1684 -2.9501 0.9021 12.5190 0.8724 0.6937 1.6129 2.4721 0.3449 -5.3746 -12.3178 -0.6977 -15.2987 6.8695 -3.4859 38.2255 4.2846 -3.4924 16.6654 0.0000 0.0000 0.0000 -88.3404 1.0603 26.0795 19.2629 -29.7440 -5.1606 -0.0000 -0.0000 5.2138 23.3743 23.0950 9.6222 -7.1250 0.0000 -0.0000 -6.1173 54.7935 -1.4756 0.0000 0.0000 0.0000 86.0206 -2.8150 -1.5528 -18.0379 28.2057 -4.5671 0.0000 0.0000 6.8230 -15.7363 7.9820 -2.2407 7.1250 -0.0000 -0.0000 8.0527 -21.7215 4.5447
6.0045 17.7923 8.5942 175.3910 -15.6269 -179.0820 0.0000 0.0000 0.0000 -19.5955 -4.9645 -0.7210 0.9331 6.1533 17.2298 0.2285 -10.3040 -10.4670 0.6310 -5.0827 -14.1446 0.0000 0.0000 0.0000 3.1060 9.8634 -9.3811 -3.9625 -12.1103 36.1232 -0.9005 -0.5382 -18.1367 -0.0126 -0.7254 1.9936 -3.0772 0.9268 12.5817 0.8931 0.7053 1.6387 2.5638 0.3518 -5.3849 -12.3851 -0.7482 -15.4343 6.9619 -3.5972 38.3277 4.3210 -3.5471 16.7745 0.0000 -0.0000 0.0000 -88.1188 1.1521 26.5296 19.4257 -29.9442 -5.2417 -0.0000 -0.0000 4.9180 22.9486 22.8309 9.3298 -7.1250 0.0000 -0.0000 -6.4666 54.4328 -1.5036 0.0000 -0.0000 0.0000 86.1248 -2.8395 -1.0373 -18.0394 28.2076 -4.5678 0.0000 0.0000 7.1088 -15.6293 8.2077 -2.2871 7.1250 -0.0000 -0.0000 8.1235 -21.4946 4.6277
5.9355 17.8003 8.6267 175.5690 -15.2613 -179.2090 0.0000 0.0000 0.0000 -19.7396 -5.0019 -0.7604 0.9656 6.2564 17.5303 0.2642 -9.8671 -10.7236 0.6523 -5.1662 -14.3831 0.0000 0.0000 0.0000 3.8484 9.2338 -10.0284 -4.1199 -12.3183 36.8676 -1.0166 0.8932 -18.7817 -0.0019 -0.2810 0.7722 -3.0680 0.9483 12.5897 0.9313 0.7348 1.6603 2.5939 0.3649 -5.3690 -12.3085 -0.7564 -15.4043 6.9391 -3.6483 38.3128 4.2852 -3.5646 16.7635 0.0000 -0.0000 0.0000 -87.8773 1.2973 27.0690 19.6297 -30.1937 -5.3439 -0.0000 -0.0000 4.2347 23.0055 22.4289 9.2018 -7.1250 0.0000 -0.0000 -6.2669 54.0240 -1.3943 0.0000 -0.0000 0.0000 86.2671 -2.8164 -0.7225 -17.9900 28.1443 -4.5445 0.0000 0.0000 7.7338 -15.5928 8.6102 -2.3924 7.1250 -0.0000 -0.0000 8.1388 -21.0835 4.7132
5.8702 17.8028 8.6585 175.6750 -14.8819 -179.2360 0.0000 0.0000 0.0000 -19.9405 -5.0659 -0.9139 1.0031 6.3734 17.8717 0.3003 -9.4460 -11.0076 0.6627 -5.2062 -14.4976 0.0000 0.0000 0.0000 4.5410 8.5571 -10.7236 -4.2749 -12.5175 37.5881 -1.1037 2.2290 -19.2397 -0.0048 0.4465 -1.2269 -3.1523 0.9318 12.5174 0.9509 0.7061 1.6472 2.6675 0.3530 -5.3422 -12.1342 -0.6944 -15.3047 6.7832 -3.5596 38.2246 4.1939 -3.5224 16.6695 0.0000 0.0000 0.0000 -87.7402 1.3739 27.1236 19.8410 -30.4503 -5.4505 -0.0000 -0.0000 4.3733 22.9559 23.7963 9.6984 -7.1250 0.0000 -0.0000 -6.8159 55.4403 -1.7526 0.0000 0.0000 0.0000 86.3851 -2.7672 -0.3862 -17.9038 28.0338 -4.5039 0.0000 0.0000 8.4800 -15.4860 9.0027 -2.4825 7.1250 -0.0000 -0.0000 8.2056 -20.6864 4.8269
5.8069 17.7996 8.6914 175.8990 -14.5237 -179.3220 0.0000 0.0000 0.0000 -20.0106 -5.1656 -1.0285 1.0416 6.4906 18.2147 0.3315 -9.0308 -11.2451 0.6112 -5.0039 -13.9196 0.0000 0.0000 0.0000 5.4047 7.7742 -11.3229 -4.4255 -12.7061 38.2779 -1.1790 3.5070 -19.6604 -0.0274 1.0692 -2.9392 -3.1438 0.8907 12.5972 1.0290 0.6555 1.5982 2.7535 0.3314 -5.4354 -12.0837 -0.6321 -15.2566 6.7666 -3.4671 38.1224 4.1898 -3.4755 16.5869 -0.0000 0.0000 0.0000 -87.6897 1.4852 27.0992 19.8708 -30.4864 -5.4656 -0.0000 -0.0000 3.8946 24.2009 23.4207 10.1286 -7.1250 0.0000 -0.0000 -5.3640 55.3031 -1.3596 -0.0000 0.0000 0.0000 86.4576 -2.7635 0.0621 -17.8387 27.9501 -4.4734 0.0000 0.0000 9.1022 -15.4200 9.2082 -2.5273 7.1250 -0.0000 -0.0000 8.2479 -20.4792 4.8912
